<?xml version="1.0" encoding="UTF-8"?>
<svg id="Layer_2" data-name="Layer 2" xmlns="http://www.w3.org/2000/svg" viewBox="0 0 38 38">
  <defs>
    <style>
      .cls-1 {
        fill: #fff;
      }

      .cls-2 {
        fill: #17805f;
      }
    </style>
  </defs>
  <g id="Layer_1-2" data-name="Layer 1">
    <g>
      <circle class="cls-2" cx="19" cy="19" r="19"/>
      <path class="cls-1" d="m20.85,13.4c0,2.98-2.42,5.4-5.4,5.4s-5.4-2.42-5.4-5.4,2.42-5.4,5.4-5.4,5.4,2.42,5.4,5.4Zm-14.85,14.95c0-4.16,3.37-7.52,7.52-7.52h3.86c4.16,0,7.52,3.37,7.52,7.52,0,.69-.56,1.25-1.25,1.25H7.25c-.69,0-1.25-.56-1.25-1.25Zm25.7,1.25h-5.82c.23-.4.36-.86.36-1.35v-.34c0-2.56-1.14-4.86-2.94-6.4.1,0,.2,0,.3,0h2.59c3.76,0,6.8,3.05,6.8,6.8,0,.72-.58,1.3-1.3,1.3Zm-7.48-10.8c-1.31,0-2.49-.53-3.35-1.39.83-1.12,1.32-2.51,1.32-4.01,0-1.13-.28-2.2-.77-3.13.78-.57,1.75-.92,2.8-.92,2.61,0,4.73,2.11,4.73,4.72s-2.11,4.73-4.73,4.73Z"/>
    </g>
  </g>
</svg>