<?xml version="1.0" encoding="UTF-8"?>
<svg id="Layer_2" data-name="Layer 2" xmlns="http://www.w3.org/2000/svg" viewBox="0 0 38 38">
  <defs>
    <style>
      .cls-1 {
        fill: #fff;
      }

      .cls-2 {
        fill: #6c757d;
      }
    </style>
  </defs>
  <g id="Layer_1-2" data-name="Layer 1">
    <g>
      <circle class="cls-2" cx="19" cy="19" r="19"/>
      <path class="cls-1" d="m22.3,9.26c0-1.25.97-2.26,2.17-2.26s2.17,1.01,2.17,2.26-.97,2.26-2.17,2.26-2.17-1.01-2.17-2.26Zm4.93,21.51l-2.11-.79-.43.17,1.11-4.02c-.26.12-.54.16-.84.11-.28-.05-.52-.18-.71-.36l-.42,4.62-.46.18-.48.92c-.09.14,0,.33.16.33h3.94c.34,0,.61-.28.61-.63,0-.23-.14-.44-.35-.52h0ZM7.93,21.04l-.09-.51-.79-.66c-.11-.12-.31-.07-.33.1l-.71,4.04c-.06.35.16.67.49.74.22.04.44-.07.56-.27l1.12-2.03-.08-.47,3.6,1.85c-.07-.28-.06-.59.05-.88.09-.27.26-.5.47-.67l-4.29-1.26h0Zm23.07-1.96c0,.84-.65,1.51-1.45,1.51h-.96c-1.75,0-3.34-1.1-4.01-2.79l-.23-.58-1.4,3.89,1.97,1.29h0l1.09.71c.65.42.85,1.31.44,1.99l-.06.1c-.41.68-1.26.88-1.91.46l-1-.65-1.56-1.01-1.36-.89s0,0-.01,0l-.92-.6c-1.14-.74-1.64-2.19-1.21-3.51l1.41-4.42c-.08-.01-.17-.02-.26-.02-.64,0-1.25.27-1.7.73l-1.05,1.1c-.57.59-1.48.59-2.05,0-.57-.59-.57-1.55,0-2.14l1.05-1.09c.99-1.04,2.34-1.62,3.74-1.62.53,0,1.06.09,1.56.24l2.21.71c1.65.53,2.98,1.79,3.65,3.45l.29.71c.22.56.75.93,1.34.93h.96c.8,0,1.45.67,1.45,1.51h0Zm-5.96,5.29c0,.22.17.4.38.4s.38-.18.38-.4-.17-.4-.38-.4-.38.18-.38.4Zm-5.72-1.06l-.69,1.13c-.46.75-1.31,1.16-2.16,1.03l-3.12-.49c-.79-.12-1.34-.89-1.22-1.71.12-.82.85-1.39,1.65-1.27l2.65.41,1.1-1.8c.21.89.69,1.73,1.4,2.36l.39.35h0Zm-5.66.11c0-.22-.17-.4-.38-.4s-.38.18-.38.4.17.4.38.4.38-.18.38-.4Z"/>
    </g>
  </g>
</svg>