<?xml version="1.0" encoding="UTF-8"?>
<svg id="Layer_2" data-name="Layer 2" xmlns="http://www.w3.org/2000/svg" viewBox="0 0 30 30">
  <defs>
    <style>
      .cls-1 {
        fill: #f8f9fa;
      }

      .cls-2 {
        fill: #d23342;
      }
    </style>
  </defs>
  <g id="Layer_1-2" data-name="Layer 1">
    <g>
      <circle class="cls-2" cx="15" cy="15" r="15"/>
      <path class="cls-1" d="m14.16,5.15c.54-.2,1.14-.2,1.68,0l7.5,2.68c.99.36,1.66,1.3,1.66,2.36v9.48c0,1.06-.66,2-1.66,2.36l-7.5,2.68c-.54.2-1.14.2-1.68,0l-7.5-2.68c-.99-.36-1.66-1.3-1.66-2.36v-9.48c0-1.06.66-2,1.66-2.36l7.5-2.68Zm.84,2.36l-6.79,2.42,6.79,2.42,6.79-2.42-6.79-2.42Zm1.25,14.4l6.25-2.23v-7.34l-6.25,2.23v7.34Z"/>
    </g>
  </g>
</svg>